<?xml version="1.0" standalone="no"?>
<!DOCTYPE svg PUBLIC "-//W3C//DTD SVG 20010904//EN"
 "http://www.w3.org/TR/2001/REC-SVG-20010904/DTD/svg10.dtd">
<svg version="1.0" xmlns="http://www.w3.org/2000/svg"
 width="250.000000pt" height="250.000000pt" viewBox="0 0 250.000000 250.000000"
 preserveAspectRatio="xMidYMid meet">
<metadata>
Created by potrace 1.14, written by Peter Selinger 2001-2017
</metadata>
<g transform="translate(0.000000,250.000000) scale(0.100000,-0.100000)"
fill="#000000" stroke="none">
<path d="M2087 1750 c-110 -77 -212 -148 -228 -157 -16 -10 -29 -21 -29 -25 0
-18 -17 -6 -34 25 -25 43 -119 136 -179 176 -148 101 -355 134 -531 86 -74
-20 -181 -75 -236 -122 -36 -31 -45 -35 -61 -25 -33 21 -38 14 -33 -55 6 -96
13 -165 16 -168 2 -1 45 23 96 54 82 49 91 57 73 65 -12 5 -21 13 -21 17 0 14
88 70 153 97 55 23 75 26 182 27 133 0 193 -16 285 -75 74 -47 184 -169 168
-185 -9 -10 -395 -278 -403 -281 -5 -2 -48 53 -95 122 -46 69 -88 127 -92 130
-6 4 -131 -79 -161 -106 -8 -7 252 -392 287 -426 8 -9 66 27 231 143 121 85
227 159 235 166 8 7 27 20 43 30 l27 17 0 -57 c-1 -238 -168 -449 -400 -503
-52 -13 -182 -16 -225 -6 -78 17 -160 57 -228 109 l-38 30 -44 -43 c-48 -47
-49 -43 20 -96 91 -71 204 -117 316 -129 77 -9 69 -9 153 -1 104 11 267 77
323 132 7 7 23 21 36 31 40 31 116 132 146 191 50 102 65 174 64 309 l0 122
253 177 253 177 -57 83 c-31 46 -59 83 -62 83 -3 0 -94 -62 -203 -139z"/>
</g>
</svg>
